<svg width="84" height="9" viewBox="0 0 84 9" fill="none" xmlns="http://www.w3.org/2000/svg">
<path d="M0.408997 3.80206C0.666238 3.31028 1.05628 2.90022 1.53494 2.61832C2.02256 2.33532 2.57807 2.18995 3.14206 2.19776C3.64173 2.19448 4.13422 2.31652 4.57435 2.55267C4.99017 2.76539 5.33993 3.08741 5.58589 3.48397V0H6.69312V8.89139H5.58589V7.65375C5.35848 8.05695 5.02592 8.39113 4.62354 8.62081C4.19832 8.87343 3.70076 8.99973 3.13083 8.99973C2.56837 9.00721 2.0151 8.85684 1.53407 8.56575C1.05304 8.27465 0.663584 7.85454 0.410066 7.35328C0.136689 6.83239 0 6.23945 0 5.57447C0 4.90201 0.136332 4.3112 0.408997 3.80206ZM5.28489 4.28879C5.0989 3.936 4.8173 3.64251 4.47224 3.44181C4.12959 3.24956 3.74333 3.14808 3.35027 3.14705C2.9572 3.14603 2.57042 3.24548 2.22676 3.43594C1.88335 3.63423 1.60354 3.92596 1.42 4.27705C1.21968 4.6453 1.11935 5.07777 1.11899 5.57447C1.11899 6.07934 1.21933 6.51804 1.42 6.89056C1.60323 7.2452 1.88283 7.54113 2.22676 7.74448C2.56654 7.94149 2.95338 8.0431 3.34629 8.03855C3.74099 8.0425 4.12956 7.94097 4.4717 7.74448C4.81808 7.54235 5.09988 7.24624 5.28435 6.89056C5.48502 6.51804 5.58535 6.08344 5.58535 5.58674C5.58535 5.09005 5.4852 4.6574 5.28489 4.28879Z" fill="#1D232F"/>
<path d="M10.4671 2.49824C10.8235 2.29009 11.2589 2.18602 11.7732 2.18602V3.31533H11.484C10.2565 3.31533 9.64253 3.98031 9.64218 5.31029V8.89139H8.5467V2.30611H9.64218V3.3735C9.82611 3.00792 10.1128 2.70377 10.4671 2.49824Z" fill="#1D232F"/>
<path d="M13.0371 3.80206C13.2933 3.31055 13.6822 2.90049 14.1599 2.61832C14.6434 2.33637 15.1947 2.191 15.7547 2.19776C16.3328 2.19776 16.8345 2.32229 17.2597 2.57135C17.6849 2.82041 18.0019 3.13298 18.2108 3.50906V2.30611H19.318V8.89139H18.2135V7.66389C17.9818 8.06316 17.6471 8.39306 17.2442 8.61921C16.8165 8.87182 16.3175 8.99813 15.7472 8.99813C15.1874 9.00515 14.6369 8.85519 14.1583 8.5653C13.6798 8.27197 13.2922 7.85184 13.0387 7.35168C12.7653 6.83079 12.6288 6.23785 12.6292 5.57287C12.6281 4.90148 12.7641 4.3112 13.0371 3.80206ZM17.9103 4.28879C17.7243 3.936 17.4428 3.64251 17.0977 3.44181C16.755 3.24956 16.3688 3.14808 15.9757 3.14705C15.5826 3.14603 15.1959 3.24548 14.8522 3.43594C14.5088 3.63423 14.229 3.92596 14.0454 4.27705C13.8451 4.6453 13.7448 5.07777 13.7444 5.57447C13.7444 6.07934 13.8448 6.51804 14.0454 6.89056C14.2287 7.2452 14.5083 7.54113 14.8522 7.74448C15.192 7.94149 15.5788 8.0431 15.9717 8.03855C16.3655 8.04202 16.7531 7.94051 17.0945 7.74448C17.4409 7.54235 17.7227 7.24624 17.9071 6.89056C18.1078 6.51804 18.2081 6.08344 18.2081 5.58674C18.2081 5.09005 18.1089 4.6574 17.9103 4.28879Z" fill="#1D232F"/>
<path d="M26.3389 2.91292C26.8379 3.39752 27.0874 4.09648 27.0874 5.00981V8.89139H26.0015V5.16619C26.0015 4.50938 25.8372 4.00664 25.5086 3.65796C25.18 3.30928 24.7303 3.13511 24.1597 3.13547C23.5823 3.13547 23.1229 3.31568 22.7814 3.67611C22.44 4.03653 22.2694 4.56133 22.2698 5.25051V8.89139H21.1748V2.30611H22.2698V3.24328C22.4871 2.90647 22.7935 2.63624 23.1551 2.46248C23.5393 2.27654 23.9616 2.18262 24.3885 2.18816C25.1908 2.18816 25.841 2.42974 26.3389 2.91292Z" fill="#1D232F"/>
<path d="M32.5626 8.89139L29.9744 5.98328V8.89139H28.8789V0H29.9744V5.23023L32.5145 2.30984H34.043L30.9373 5.59048L34.0564 8.89139H32.5626Z" fill="#1D232F"/>
<path d="M37.5641 2.42619C37.9676 2.22096 38.4153 2.11778 38.8681 2.12572C39.4141 2.11843 39.9513 2.26413 40.4185 2.54627C40.8879 2.83562 41.2672 3.24977 41.514 3.74228C41.7817 4.2589 41.9155 4.85771 41.9155 5.53871C41.9155 6.21971 41.7812 6.82261 41.5124 7.34741C41.2669 7.84646 40.8884 8.26838 40.4185 8.56691C39.9539 8.85645 39.4158 9.00668 38.8681 8.99973C38.3709 8.99973 37.9355 8.90153 37.562 8.70513C37.2072 8.52462 36.9 8.26316 36.6654 7.94195V8.89139H34.9824V0H36.6675V3.20752C36.8964 2.87646 37.2046 2.60785 37.5641 2.42619ZM39.9481 4.49907C39.7969 4.22069 39.571 3.98987 39.2958 3.83248C39.03 3.68106 38.7288 3.60228 38.4227 3.60406C38.1199 3.60341 37.8226 3.68435 37.562 3.83835C37.2871 4.00096 37.0622 4.23578 36.9119 4.51721C36.7498 4.84198 36.6654 5.19988 36.6654 5.56273C36.6654 5.92557 36.7498 6.28347 36.9119 6.60824C37.0622 6.88967 37.2871 7.12449 37.562 7.2871C37.8249 7.44149 38.1246 7.52241 38.4297 7.52138C38.7348 7.52035 39.0339 7.4374 39.2958 7.28123C39.5703 7.11526 39.7948 6.87854 39.9459 6.59596C40.1099 6.29994 40.192 5.94752 40.1924 5.53871C40.1938 5.13844 40.1124 4.79189 39.9481 4.49907Z" fill="#B10B0B"/>
<path d="M49.2935 6.0676H44.4198C44.46 6.54793 44.6286 6.92436 44.9255 7.19691C45.2224 7.46945 45.5876 7.60572 46.021 7.60572C46.6472 7.60572 47.0928 7.33727 47.3576 6.80037H49.1754C48.9879 7.43284 48.599 7.98706 48.0676 8.37904C47.5215 8.79177 46.8513 8.99813 46.0568 8.99813C45.4537 9.0077 44.8584 8.86056 44.3294 8.57118C43.8243 8.29176 43.4106 7.87301 43.1377 7.36502C42.8526 6.84484 42.71 6.24408 42.71 5.56273C42.71 4.87354 42.8504 4.26869 43.1313 3.74816C43.3987 3.24116 43.8088 2.82335 44.3112 2.54627C44.8163 2.26626 45.398 2.12607 46.0563 2.12572C46.6904 2.12572 47.2583 2.26199 47.7602 2.53453C48.2539 2.79971 48.6597 3.20269 48.9278 3.69425C49.2041 4.19486 49.3423 4.76965 49.3427 5.41863C49.3441 5.63593 49.3276 5.85298 49.2935 6.0676ZM47.596 4.93777C47.5882 4.50511 47.4317 4.15857 47.1266 3.89812C46.8215 3.63768 46.4484 3.50764 46.0071 3.50799C45.5901 3.50799 45.239 3.63412 44.9539 3.88638C44.6687 4.13864 44.4943 4.4891 44.4305 4.93777H47.596Z" fill="#B10B0B"/>
<path d="M51.6545 8.70513C51.2488 8.52993 50.8946 8.25441 50.6253 7.90459C50.3778 7.58202 50.2331 7.19268 50.2099 6.78703H51.9074C51.923 6.91354 51.9648 7.03544 52.03 7.14503C52.0953 7.25462 52.1826 7.34952 52.2864 7.42373C52.507 7.59166 52.782 7.67581 53.1114 7.67616C53.4321 7.67616 53.6829 7.61212 53.8636 7.48404C54.0443 7.35595 54.1347 7.19157 54.1347 6.9909C54.1347 6.77493 54.0242 6.61269 53.8032 6.50417C53.5822 6.39565 53.2311 6.27752 52.7499 6.14979C52.3343 6.05458 51.926 5.92973 51.5283 5.7762C51.2122 5.64898 50.9314 5.44761 50.7098 5.18914C50.4809 4.92514 50.3665 4.56934 50.3665 4.12174C50.3648 3.76008 50.477 3.40702 50.6873 3.11252C50.9012 2.80796 51.2061 2.56762 51.6021 2.3915C51.9981 2.21538 52.4655 2.12643 53.0044 2.12465C53.7989 2.12465 54.433 2.32301 54.9067 2.71972C55.3804 3.11644 55.6405 3.65084 55.6872 4.32295H54.0742C54.0667 4.20047 54.0333 4.08096 53.9763 3.97225C53.9192 3.86354 53.8398 3.76808 53.7433 3.69212C53.5466 3.53592 53.2837 3.45782 52.9547 3.45782C52.6493 3.45782 52.4146 3.51386 52.2506 3.62594C52.1721 3.67584 52.1081 3.74532 52.0648 3.8275C52.0215 3.90968 52.0004 4.00172 52.0036 4.09452C52.0036 4.31868 52.1159 4.48946 52.3409 4.60527C52.566 4.72109 52.9146 4.83956 53.3878 4.95965C53.7934 5.05615 54.1918 5.18099 54.58 5.33323C54.8951 5.46305 55.174 5.66725 55.3927 5.92831C55.6208 6.19658 55.7391 6.55095 55.7477 6.99143C55.7519 7.36106 55.6397 7.72268 55.4269 8.0252C55.213 8.32941 54.9081 8.56779 54.5121 8.74036C54.1161 8.91292 53.6528 8.99902 53.122 8.99867C52.6174 9.00714 52.1169 8.90703 51.6545 8.70513Z" fill="#B10B0B"/>
<path d="M59.0939 3.6158V6.83666C59.0939 7.06081 59.1474 7.22306 59.2543 7.32339C59.3613 7.42373 59.5446 7.47318 59.8045 7.47176H60.5866V8.89139H59.5275C58.1068 8.89139 57.3965 8.20239 57.3965 6.82438V3.6158H56.602V2.23406H57.3965V0.587067H59.0939V2.23352H60.5866V3.61526L59.0939 3.6158Z" fill="#B10B0B"/>
<path d="M67.9523 6.0676H63.077C63.1173 6.54793 63.2857 6.92436 63.5822 7.19691C63.8788 7.46945 64.2441 7.60572 64.6782 7.60572C65.3037 7.60572 65.7493 7.33727 66.0148 6.80037H67.8326C67.6453 7.43265 67.2568 7.98684 66.7259 8.37904C66.1798 8.79177 65.5098 8.99813 64.7156 8.99813C64.1125 9.00789 63.5172 8.86075 62.9882 8.57118C62.4829 8.29208 62.0691 7.87325 61.7965 7.36502C61.5114 6.84484 61.3688 6.24408 61.3688 5.56273C61.3688 4.87354 61.5093 4.26869 61.7901 3.74816C62.0573 3.24123 62.4673 2.82344 62.9695 2.54627C63.4753 2.26626 64.0572 2.12607 64.7151 2.12572C65.3492 2.12572 65.917 2.26199 66.4185 2.53453C66.9124 2.79944 67.3182 3.20249 67.5861 3.69425C67.8631 4.19486 68.0015 4.76965 68.0015 5.41863C68.0029 5.63593 67.9865 5.85298 67.9523 6.0676ZM66.2549 4.93777C66.247 4.50511 66.0906 4.15857 65.7855 3.89812C65.4804 3.63768 65.1072 3.50764 64.6659 3.50799C64.2486 3.50799 63.8975 3.63412 63.6127 3.88638C63.3279 4.13864 63.1533 4.4891 63.0888 4.93777H66.2549Z" fill="#B10B0B"/>
<path d="M70.9153 0V8.89139H69.2296V0H70.9153Z" fill="#B10B0B"/>
<path d="M72.4919 8.7473C72.3878 8.64269 72.3169 8.50964 72.2884 8.36492C72.2598 8.22019 72.2748 8.07027 72.3315 7.93404C72.3882 7.79782 72.4839 7.68137 72.6068 7.59939C72.7296 7.51741 72.874 7.47356 73.0218 7.47336C73.1174 7.47187 73.2123 7.49033 73.3004 7.52755C73.3885 7.56477 73.4679 7.61993 73.5334 7.68951C73.6687 7.83248 73.7441 8.02171 73.7441 8.2184C73.7441 8.41509 73.6687 8.60433 73.5334 8.7473C73.4679 8.81687 73.3885 8.87204 73.3004 8.90926C73.2123 8.94647 73.1174 8.96493 73.0218 8.96344C72.9233 8.96548 72.8255 8.94735 72.7344 8.91017C72.6433 8.87299 72.5608 8.81756 72.4919 8.7473Z" fill="#1D232F"/>
<path d="M80.365 2.91292C80.8622 3.39752 81.1117 4.09648 81.1135 5.00981V8.89139H80.0298V5.16619C80.0298 4.50938 79.8653 4.00664 79.5363 3.65796C79.2073 3.30928 78.7579 3.13511 78.188 3.13547C77.6105 3.13547 77.1511 3.31568 76.8097 3.67611C76.4682 4.03653 76.2977 4.56133 76.298 5.25051V8.89139H75.2026V2.30611H76.298V3.24328C76.5153 2.90662 76.8215 2.63641 77.1828 2.46248C77.567 2.27574 77.9895 2.18108 78.4168 2.18602C79.218 2.18745 79.8674 2.42975 80.365 2.91292Z" fill="#1D232F"/>
<path d="M84 0V8.89139H82.9051V0H84Z" fill="#1D232F"/>
</svg>
