<svg width="33" height="28" viewBox="0 0 39 34" fill="none" xmlns="http://www.w3.org/2000/svg">
<path d="M10.6219 5.5522V30.3152H21.344C31.0838 30.3152 35.3069 24.7817 35.3069 16.9745C35.3069 9.49662 31.0842 3.68475 21.344 3.68475H12.4788C12.2349 3.68475 11.9934 3.73306 11.7681 3.82691C11.5428 3.92076 11.3381 4.05832 11.1656 4.23174C10.9932 4.40515 10.8564 4.61102 10.7631 4.83759C10.6698 5.06416 10.6219 5.30698 10.6219 5.5522Z" fill="#CC0066"/>
<path d="M2.78556 0.9333C2.29311 0.93375 1.82095 1.13064 1.47273 1.48076C1.12451 1.83088 0.928687 2.30561 0.928239 2.80075V31.1993C0.928687 31.6944 1.12451 32.1691 1.47273 32.5192C1.82095 32.8694 2.29311 33.0662 2.78556 33.0667H20.1127C31.6933 33.0667 38.0718 27.3471 38.0718 16.9618C38.0718 3.01538 26.8196 0.9333 20.1127 0.9333H2.78556ZM20.1127 34H2.78556C2.04703 33.9992 1.33896 33.7039 0.816738 33.1788C0.294513 32.6537 0.000783238 31.9418 0 31.1993V2.80075C0.000783238 2.05819 0.294513 1.34626 0.816738 0.82119C1.33896 0.296119 2.04703 0.000787508 2.78556 0H20.1127C36.5463 0 39 10.6267 39 16.9618C39 27.9493 32.2927 34 20.1127 34Z" fill="black"/>
<path d="M14.3061 18.4535C14.4925 18.4535 14.6739 18.4229 14.8501 18.3626C15.026 18.3018 15.1824 18.201 15.3193 18.0599C15.4571 17.9197 15.567 17.7357 15.649 17.5092C15.7315 17.2831 15.7729 17.0064 15.7729 16.6804C15.7729 16.382 15.7437 16.113 15.6867 15.8729C15.6368 15.649 15.5398 15.4384 15.4022 15.2554C15.2651 15.0805 15.0848 14.9448 14.8793 14.8618C14.6616 14.7705 14.394 14.725 14.0758 14.725H13.1526V18.4539L14.3061 18.4535ZM14.397 13.6314C14.7757 13.6314 15.1291 13.6927 15.4554 13.8142C15.7751 13.9309 16.0649 14.1174 16.3042 14.3603C16.5435 14.6034 16.7299 14.9073 16.8651 15.2719C16.9991 15.6366 17.0668 16.0646 17.0668 16.5563C17.0668 16.9872 17.0118 17.385 16.9019 17.7497C16.792 18.1135 16.6259 18.4289 16.4035 18.6936C16.1763 18.9626 15.8917 19.1766 15.5708 19.3196C15.2386 19.4718 14.8472 19.5474 14.397 19.5474H11.8587V13.6314H14.397ZM22.3251 13.6319V14.725H19.2187V15.9928H22.0694V17.0038H19.2187V18.4539H22.391V19.5474H17.9248V13.6314L22.3251 13.6319ZM26.8293 17.2605L26.0875 15.0896H26.071L25.3051 17.2605H26.8293ZM26.7554 13.6314L28.9551 19.5474H27.6122L27.1671 18.2299H24.9665L24.5053 19.5474H23.2034L25.4285 13.6314H26.7554ZM31.0626 13.6319V18.4535H33.9302V19.547H29.7688V13.631H31.0622L31.0626 13.6319Z" fill="white"/>
<path d="M8.49111 16.5894C8.49111 16.9478 8.4209 17.3027 8.28451 17.6338C8.14811 17.9649 7.94819 18.2657 7.69616 18.5191C7.44413 18.7725 7.14492 18.9735 6.81563 19.1106C6.48634 19.2478 6.1334 19.3184 5.77698 19.3184C5.42055 19.3184 5.06762 19.2478 4.73833 19.1106C4.40903 18.9735 4.10983 18.7725 3.8578 18.5191C3.60577 18.2657 3.40585 17.9649 3.26945 17.6338C3.13305 17.3027 3.06285 16.9478 3.06285 16.5894C3.06285 15.8657 3.3488 15.1716 3.8578 14.6598C4.3668 14.148 5.05715 13.8605 5.77698 13.8605C6.49681 13.8605 7.18716 14.148 7.69616 14.6598C8.20516 15.1716 8.49111 15.8657 8.49111 16.5894ZM7.83255 30.3152C5.5614 30.3152 3.71972 28.4639 3.71972 26.18V22.9551C3.71972 22.4067 3.93638 21.8808 4.32203 21.4931C4.70768 21.1053 5.23074 20.8875 5.77613 20.8875C6.32153 20.8875 6.84458 21.1053 7.23024 21.4931C7.61589 21.8808 7.83255 22.4067 7.83255 22.9551V30.3152Z" fill="black"/>
</svg>
