<svg width="25" height="32" viewBox="0 0 25 32" fill="none" xmlns="http://www.w3.org/2000/svg">
<path d="M5 7.5C5 3.35786 8.35786 0 12.5 0C16.6421 0 20 3.35786 20 7.5C20 11.6421 16.6421 15 12.5 15C8.35786 15 5 11.6421 5 7.5Z" fill="#172A73"/>
<path d="M6.91476 4.14891V4.46807L8.08151 4.65177C8.90823 4.78189 9.57452 5.40332 9.76716 6.22382L11.133 12.0415C11.1668 12.1855 11.2944 12.2872 11.4412 12.2872H13.3578C13.4843 12.2872 13.5986 12.2114 13.6487 12.0944L16.9548 4.3717C16.9999 4.26635 16.9233 4.14891 16.8094 4.14891H15.0435C14.916 4.14891 14.8009 4.22595 14.7516 4.34437L12.5367 9.65421L11.6532 4.92911C11.5687 4.47664 11.1764 4.14891 10.7195 4.14891H6.91476Z" fill="white"/>
<path d="M7.50003 32C11.6422 32 15.0001 28.6421 15.0001 24.5C15.0001 20.3579 11.6422 17 7.50003 17C3.35788 17 0 20.3579 0 24.5C0 28.6421 3.35788 32 7.50003 32Z" fill="#E80B26"/>
<path d="M17.5 32C21.6421 32 25 28.6421 25 24.5C25 20.3579 21.6421 17 17.5 17C13.3578 17 9.99995 20.3579 9.99995 24.5C9.99995 28.6421 13.3578 32 17.5 32Z" fill="#F59D31"/>
<path d="M12.5 30.0902C14.0344 28.7169 15.0001 26.7212 15.0001 24.5C15.0001 22.2788 14.0344 20.2831 12.5 18.9098C10.9655 20.2831 9.99995 22.2788 9.99995 24.5C9.99995 26.7212 10.9655 28.7169 12.5 30.0902Z" fill="#FC6020"/>
</svg>
