<svg width="23" height="22" viewBox="0 0 23 22" fill="none" xmlns="http://www.w3.org/2000/svg" stroke="currentColor" stroke-width="2" stroke-linecap="round" stroke-linejoin="round">
<path d="M16.5233 13.4599C16.4606 13.3524 16.2814 13.2807 16.0216 13.1553C15.7619 13.0299 14.463 12.3939 14.2301 12.3043C13.9973 12.2148 13.8092 12.17 13.639 12.4387C13.4688 12.7074 13.1911 13.0926 13.0388 13.2628C12.8865 13.433 12.7343 13.4599 12.4655 13.3255C10.9327 12.6575 9.63934 11.5391 8.75716 10.1187C8.60488 9.85897 8.75716 9.71565 8.8736 9.59024C9.31252 9.15133 9.32147 9.21403 9.42896 8.99905C9.46738 8.92905 9.48752 8.85049 9.48752 8.77064C9.48752 8.69079 9.46738 8.61223 9.42896 8.54222C9.2946 8.38995 8.80194 7.11799 8.57801 6.59846C8.35407 6.07893 7.22544 5.9804 6.78652 6.4641C2.12865 11.3728 13.4777 19.7838 16.3799 14.6602C16.4992 14.4901 16.5747 14.2932 16.5997 14.0869C16.6247 13.8807 16.5985 13.6714 16.5233 13.4778M11.0861 1.00006C8.42368 0.990535 5.86628 2.03782 3.97529 3.91202C2.0843 5.78622 1.01424 8.33418 1.00002 10.9966C0.996044 13.104 1.66789 15.1573 2.91691 16.8547L1.66287 20.5721L5.53248 19.3449C7.04763 20.3398 8.80288 20.908 10.6136 20.9897C12.4244 21.0715 14.2237 20.6638 15.8223 19.8094C17.4209 18.9551 18.7598 17.6858 19.6981 16.135C20.6364 14.5841 21.1394 12.8091 21.1542 10.9966C21.14 8.33729 20.0724 5.79205 18.1853 3.91836C16.2982 2.04467 13.7454 0.995286 11.0861 1.00006V1.00006Z"/>
</svg>
