<svg width="24" height="24" viewBox="0 0 24 24" fill="none" xmlns="http://www.w3.org/2000/svg" stroke="currentColor" stroke-width="2" stroke-linecap="round" stroke-linejoin="round">
<path d="M15.1052 6.53586C15.7187 5.92232 16.6673 5.8227 17.3333 6.30407L17.4361 6.38492L17.5291 6.47094C18.1622 7.10408 18.1439 8.12058 17.5524 8.80021L17.4641 8.89493L14.3586 11.9996L17.4641 15.1051C18.0777 15.7187 18.1773 16.6673 17.6959 17.3333L17.6151 17.4361L17.5291 17.5291C16.8959 18.1622 15.8794 18.1439 15.1999 17.5525L15.1051 17.4641L11.9993 14.3582L8.89485 17.4641C8.28131 18.0777 7.33272 18.1773 6.66666 17.6959L6.56393 17.6151L6.47095 17.5291C5.83781 16.8959 5.85606 15.8794 6.44744 15.1999L6.53582 15.1052L9.64062 11.9996L6.53587 8.89485C5.92233 8.2813 5.82271 7.33272 6.30408 6.66665L6.38492 6.56392L6.47095 6.47094C7.10409 5.8378 8.12059 5.85606 8.80015 6.4475L8.89487 6.53588L11.9993 9.64019L15.1052 6.53586Z" fill="#E81212"/>
</svg>
