<svg width="181" height="48" viewBox="0 0 181 48" fill="none" xmlns="http://www.w3.org/2000/svg">
<path d="M53.1853 0C49.339 0 46.3169 2.46975 46.3169 5.6425V41.9395C46.3169 45.103 49.339 47.582 53.1853 47.582C57.0316 47.582 60.139 45.0568 60.139 41.9395V5.63325C60.139 2.52525 57.0127 0 53.1853 0Z" fill="#EE722D"/>
<path d="M31.2632 0.286743C27.4263 0.286743 24.4232 2.75649 24.4232 5.91074V19.9615L12.7326 2.98774L12.6568 2.88599C12.5931 2.79831 12.5235 2.71487 12.4484 2.63624C11.8383 1.88102 11.0547 1.27652 10.1611 0.871594C9.26747 0.466663 8.28882 0.272655 7.30421 0.305243H6.84947C3.00316 0.286743 0 2.77499 0 5.91074V42.069C0 45.214 3.00316 47.6837 6.84947 47.6837C10.6958 47.6837 13.7653 45.1677 13.7653 42.069V27.9257L24.9158 44.067C25.3106 44.9276 25.9196 45.678 26.6874 46.25C27.8834 47.2049 29.3868 47.7161 30.9316 47.693H31.2632C35.0526 47.693 38.1884 45.177 38.1884 42.069V5.91074C38.2263 2.77499 35.1189 0.286743 31.2632 0.286743Z" fill="#EE722D"/>
<path d="M131.002 0.545715C129.944 0.545779 128.895 0.730608 127.904 1.09147L119.804 3.93122C116.299 5.15222 114.679 9.19447 116.119 13.1812C117.256 16.2707 120.107 18.4352 123.054 18.4352H123.347V40.8387C123.347 44.474 126.71 47.3137 131.002 47.3137C135.294 47.3137 138.733 44.4 138.733 40.8387V7.02072C138.733 3.45022 135.265 0.545715 131.002 0.545715ZM131.002 44.2612C128.473 44.2612 126.483 42.7627 126.483 40.848V14.2727L123.916 15.1977C123.642 15.2909 123.353 15.3378 123.063 15.3365C122.15 15.2449 121.284 14.8924 120.575 14.3232C119.865 13.7539 119.344 12.9932 119.075 12.136C118.222 9.79572 119.018 7.46471 120.856 6.82646L128.994 3.97746C129.635 3.73982 130.316 3.6176 131.002 3.61672C133.532 3.61672 135.597 5.15222 135.597 7.03922V40.848C135.587 42.7257 133.579 44.2612 131.002 44.2612Z" fill="#FAB50D"/>
<path d="M176.116 21.1362C177.602 19.0503 178.405 16.5731 178.418 14.0322C178.418 6.63222 171.711 0.545715 163.468 0.545715C155.226 0.545715 148.538 6.59521 148.538 14.0322C148.547 16.5753 149.346 19.0559 150.831 21.1455C149.36 22.5268 148.184 24.1789 147.371 26.0062C146.558 27.8336 146.124 29.8001 146.094 31.7922C146.094 40.4317 153.881 47.4525 163.45 47.4525C173.018 47.4525 180.815 40.4317 180.815 31.7922C180.791 29.8011 180.363 27.8345 179.556 26.0056C178.75 24.1767 177.581 22.5217 176.116 21.1362ZM163.468 44.4C155.634 44.4 149.258 38.7482 149.258 31.8107C149.299 30.023 149.745 28.2664 150.564 26.6671C151.383 25.0678 152.555 23.6654 153.995 22.5607L155.217 21.571L154.156 20.35C152.586 18.5996 151.709 16.3587 151.683 14.0322C151.683 8.28796 156.979 3.60746 163.478 3.60746C169.977 3.60746 175.263 8.32497 175.263 14.0322C175.243 16.3582 174.369 18.6 172.8 20.35L171.767 21.534L172.999 22.5145C174.444 23.6151 175.618 25.0166 176.438 26.6169C177.257 28.2171 177.701 29.9757 177.736 31.7645C177.698 38.7297 171.322 44.4 163.468 44.4Z" fill="#FAB50D"/>
<path d="M83.2358 27.602C82.7358 27.1762 82.3276 26.6577 82.0348 26.0765C81.7421 25.4952 81.5706 24.863 81.5305 24.2165C81.5133 23.4525 81.6831 22.6956 82.0259 22.0086C82.3686 21.3216 82.8743 20.7244 83.501 20.2667L87.1105 16.5667L89.5168 14.0322L79.6263 3.69996C79.0109 2.85694 78.2079 2.161 77.2775 1.66436C76.3472 1.16773 75.3137 0.883312 74.2547 0.832458C72.3362 0.936578 70.5231 1.723 69.1579 3.04321C65.7 6.50271 66.941 10.1657 69.2337 12.4505L80.3084 24.1147L69.1579 35.9362C67.4621 37.7862 65.6432 41.8562 69.5463 45.436C70.7162 46.535 72.2714 47.157 73.8947 47.175C76.0185 47.0617 78.0222 46.1775 79.5126 44.696L89.4695 34.225L83.2358 27.602Z" fill="#EE722D"/>
<path d="M110.482 2.77499C109.047 1.42133 107.152 0.631045 105.158 0.554993C104.061 0.591893 102.988 0.872711 102.019 1.37605C101.05 1.87939 100.212 2.59197 99.5682 3.45949L87.1577 16.5852L83.5482 20.2852C82.9198 20.7414 82.4128 21.3382 82.0698 22.0256C81.7269 22.7129 81.5581 23.4707 81.5777 24.235C81.6157 24.8819 81.7862 25.5149 82.0791 26.0964C82.372 26.6779 82.7814 27.1961 83.283 27.6205L99.7198 44.9642C101.267 46.5011 103.351 47.4126 105.556 47.5172C107.278 47.5079 108.929 46.8444 110.16 45.6672C114.262 41.9672 112.339 37.6567 110.548 35.705L99.5682 24.1055L110.435 12.7002C112.86 10.3045 114.139 6.47499 110.482 2.77499ZM95.9019 24.1055L108.521 37.4625C109.98 39.0535 110.69 41.5417 108.293 43.7247C107.55 44.4435 106.554 44.8572 105.508 44.881C104.039 44.7943 102.654 44.1779 101.624 43.1512L85.1114 25.7242L85.0545 25.6687C84.815 25.4804 84.6175 25.2462 84.4741 24.9805C84.3308 24.7149 84.2446 24.4234 84.2209 24.124C84.2209 23.6985 84.3061 23.051 85.3293 22.2092L101.615 5.19849C102.017 4.62286 102.547 4.14334 103.165 3.79577C103.784 3.44819 104.474 3.24154 105.186 3.19124C106.462 3.27181 107.665 3.79702 108.578 4.67124C110.558 6.66924 110.472 8.87999 108.464 10.9335L95.9019 24.1055Z" fill="#FAB50D"/>
</svg>
