<svg width="24" height="24" viewBox="0 0 24 24" fill="none" xmlns="http://www.w3.org/2000/svg" stroke="currentColor" stroke-width="2" stroke-linecap="round" stroke-linejoin="round">
<path d="M17.7448 2.81249C18.7095 1.81601 20.3036 1.80312 21.2843 2.78387C22.2382 3.73775 22.2559 5.27872 21.3243 6.25432L18.5456 9.16409C18.3278 9.39216 18.219 9.50619 18.1518 9.63975C18.0924 9.75799 18.0571 9.88683 18.0478 10.0188C18.0374 10.1679 18.0728 10.3216 18.1438 10.6289L19.8717 18.1164C19.9444 18.4318 19.9808 18.5895 19.9691 18.7421C19.9587 18.8771 19.921 19.0086 19.8582 19.1286C19.7873 19.2642 19.6729 19.3787 19.444 19.6076L19.0732 19.9783C18.4671 20.5845 18.164 20.8875 17.8538 20.9424C17.583 20.9903 17.3043 20.9245 17.0835 20.7606C16.8306 20.5728 16.695 20.1661 16.424 19.3529L14.4142 13.3236L11.0689 16.669C10.8692 16.8687 10.7694 16.9685 10.7026 17.0861C10.6434 17.1902 10.6034 17.3042 10.5846 17.4225C10.5633 17.556 10.5789 17.6964 10.61 17.977L10.7937 19.6304C10.8249 19.9111 10.8405 20.0514 10.8192 20.185C10.8004 20.3033 10.7604 20.4172 10.7012 20.5214C10.6344 20.6389 10.5346 20.7388 10.3349 20.9385L10.1374 21.136C9.66434 21.609 9.42781 21.8456 9.16496 21.9141C8.93442 21.9742 8.68999 21.95 8.47571 21.8458C8.2314 21.7271 8.04585 21.4488 7.67475 20.8921L6.10643 18.5396C6.04013 18.4402 6.00698 18.3905 5.96849 18.3454C5.9343 18.3053 5.89701 18.268 5.85694 18.2338C5.81184 18.1953 5.76212 18.1622 5.66267 18.0959L3.31018 16.5276C2.75354 16.1565 2.47521 15.9709 2.35649 15.7266C2.25236 15.5123 2.22816 15.2679 2.28824 15.0374C2.35674 14.7745 2.59327 14.538 3.06633 14.0649L3.26384 13.8674C3.46352 13.6677 3.56337 13.5679 3.68095 13.5011C3.78511 13.4419 3.89906 13.402 4.01736 13.3831C4.15089 13.3618 4.29123 13.3774 4.5719 13.4086L6.22529 13.5923C6.50596 13.6235 6.6463 13.6391 6.77983 13.6178C6.89813 13.5989 7.01208 13.5589 7.11624 13.4997C7.23382 13.433 7.33366 13.3331 7.53335 13.1334L10.8787 9.78811L4.84939 7.77835C4.03616 7.50727 3.62955 7.37174 3.44176 7.11883C3.27777 6.89799 3.212 6.61935 3.2599 6.34849C3.31477 6.0383 3.61784 5.73523 4.22399 5.12909L4.59476 4.75831C4.82365 4.52942 4.9381 4.41497 5.07369 4.34408C5.1937 4.28134 5.3252 4.24362 5.46023 4.23323C5.61278 4.22148 5.77049 4.25787 6.0859 4.33066L13.545 6.052C13.855 6.12353 14.01 6.15929 14.1596 6.14865C14.3041 6.13838 14.4446 6.09685 14.5714 6.02693C14.7028 5.95452 14.8134 5.84025 15.0347 5.61171L17.7448 2.81249Z"/>
</svg>
